<svg xmlns="http://www.w3.org/2000/svg" width="49.999" height="46" viewBox="0 0 49.999 46">
  <g id="break" transform="translate(-825 -423)">
    <g id="like" transform="translate(825 421)">
      <path id="Path_1" data-name="Path 1" d="M24.85,10.126A13.077,13.077,0,0,1,36.84,2C44.063,2,49.265,8.18,49.919,15.544a13.477,13.477,0,0,1-.424,5.119,22.633,22.633,0,0,1-6.9,11.5L24.85,48,7.4,32.165a22.629,22.629,0,0,1-6.9-11.5A13.477,13.477,0,0,1,.08,15.543C.734,8.179,5.936,2,13.159,2A12.671,12.671,0,0,1,24.85,10.126Z" fill="#c03a2b"/>
      <path id="Path_2" data-name="Path 2" d="M6,18.078a1,1,0,0,1-1-1,10.011,10.011,0,0,1,10-10,1,1,0,0,1,0,2,8.009,8.009,0,0,0-8,8A1,1,0,0,1,6,18.078Z" fill="#ed7161"/>
    </g>
    <g id="Path_4" data-name="Path 4" transform="translate(1)" fill="#fff">
      <path d="M 850.05224609375 447.7334594726563 L 848.9978637695313 446.6385803222656 L 851.043212890625 442.2544250488281 L 851.1895751953125 441.940673828125 L 850.9473876953125 441.6932983398438 L 844.7984619140625 435.4111328125 L 848.0469360351563 426.7197265625 L 850.9707641601563 427.0907287597656 L 848.066162109375 435.3681945800781 L 847.9740600585938 435.6306762695313 L 848.1484985351563 435.8473205566406 L 853.1439819335938 442.0519104003906 L 849.8126831054688 446.4356994628906 L 849.6452026367188 446.6560363769531 L 849.7430419921875 446.9148864746094 L 850.05224609375 447.7334594726563 Z" stroke="none"/>
      <path d="M 848.376708984375 427.2655944824219 L 845.3781127929688 435.2884826660156 L 851.3047485351563 441.3435363769531 L 851.7890625 441.8383483886719 L 851.496337890625 442.4658203125 L 850.3750610351563 444.8692626953125 L 852.5092163085938 442.0608215332031 L 847.759033203125 436.160888671875 L 847.41015625 435.7275695800781 L 847.5943603515625 435.20263671875 L 850.2941284179688 427.5088806152344 L 848.376708984375 427.2655944824219 M 847.7171630859375 426.1738891601563 L 851.6473999023438 426.6725769042969 L 848.5379638671875 435.5337524414063 L 853.7787475585938 442.0430297851563 L 850.2107543945313 446.7382202148438 L 851.3796997070313 449.8327941894531 L 848.399658203125 446.7382202148438 L 850.590087890625 442.0430297851563 L 844.2188720703125 435.5337524414063 L 847.7171630859375 426.1738891601563 Z" stroke="none" fill="#fff"/>
    </g>
  </g>
</svg>
