<svg xmlns="http://www.w3.org/2000/svg" width="49.999" height="46" viewBox="0 0 49.999 46">
  <g id="lost" transform="translate(0 -2)">
    <path id="Path_1" data-name="Path 1" d="M24.85,10.126A13.077,13.077,0,0,1,36.84,2C44.063,2,49.265,8.18,49.919,15.544a13.477,13.477,0,0,1-.424,5.119,22.633,22.633,0,0,1-6.9,11.5L24.85,48,7.4,32.165a22.629,22.629,0,0,1-6.9-11.5A13.477,13.477,0,0,1,.08,15.543C.734,8.179,5.936,2,13.159,2A12.671,12.671,0,0,1,24.85,10.126Z" fill="#d8d8d8"/>
    <path id="Path_2" data-name="Path 2" d="M6,18.078a1,1,0,0,1-1-1,10.011,10.011,0,0,1,10-10,1,1,0,0,1,0,2,8.009,8.009,0,0,0-8,8A1,1,0,0,1,6,18.078Z" fill="#ececec"/>
  </g>
</svg>
